<svg width="624" height="351" xmlns="http://www.w3.org/2000/svg" xmlns:xlink="http://www.w3.org/1999/xlink" xml:space="preserve" overflow="hidden"><g><path d="M0 0 624 0 624 351 0 351Z" fill="#FFFFFF"/><path d="M253.5 70.98 297.96 70.98 297.96 89.7 253.5 89.7Z" fill="#008000"/><text fill="#FFFFFF" font-family="Calibri,Calibri_MSFontService,sans-serif" font-weight="400" font-size="15" transform="matrix(0.78 0 0 0.78 261.147 84)">App</text><text fill="#FFFFFF" font-family="Calibri,Calibri_MSFontService,sans-serif" font-weight="400" font-size="15" transform="matrix(0.78 0 0 0.78 280.647 84)">.</text><text fill="#FFFFFF" font-family="Calibri,Calibri_MSFontService,sans-serif" font-weight="400" font-size="15" transform="matrix(0.78 0 0 0.78 283.767 84)">js</text><path d="M45.24 146.64 141.18 146.64 141.18 164.58 45.24 164.58Z" fill="#F4B183"/><text font-family="Calibri,Calibri_MSFontService,sans-serif" font-weight="400" font-size="15" transform="matrix(0.78 0 0 0.78 63.5359 160)">Selectores</text><text font-family="Calibri,Calibri_MSFontService,sans-serif" font-weight="400" font-size="15" transform="matrix(0.78 0 0 0.78 114.236 160)">.</text><text font-family="Calibri,Calibri_MSFontService,sans-serif" font-weight="400" font-size="15" transform="matrix(0.78 0 0 0.78 117.356 160)">js</text><path d="M182.52 146.64 278.46 146.64 278.46 164.58 182.52 164.58Z" fill="#F4B183"/><text font-family="Calibri,Calibri_MSFontService,sans-serif" font-weight="400" font-size="15" transform="matrix(0.78 0 0 0.78 189.243 160)">BotonDescarga</text><text font-family="Calibri,Calibri_MSFontService,sans-serif" font-weight="400" font-size="15" transform="matrix(0.78 0 0 0.78 261.003 160)">.</text><text font-family="Calibri,Calibri_MSFontService,sans-serif" font-weight="400" font-size="15" transform="matrix(0.78 0 0 0.78 264.123 160)">js</text><path d="M319.8 146.64 414.96 146.64 414.96 164.58 319.8 164.58Z" fill="#F4B183"/><text font-family="Calibri,Calibri_MSFontService,sans-serif" font-weight="400" font-size="15" transform="matrix(0.78 0 0 0.78 332.026 160)">HTMLGallery</text><text font-family="Calibri,Calibri_MSFontService,sans-serif" font-weight="400" font-size="15" transform="matrix(0.78 0 0 0.78 392.866 160)">.</text><text font-family="Calibri,Calibri_MSFontService,sans-serif" font-weight="400" font-size="15" transform="matrix(0.78 0 0 0.78 395.987 160)">js</text><path d="M456.3 146.64 552.24 146.64 552.24 164.58 456.3 164.58Z" fill="#F4B183"/><text font-family="Calibri,Calibri_MSFontService,sans-serif" font-weight="400" font-size="15" transform="matrix(0.78 0 0 0.78 468.293 160)">ImageGallery</text><text font-family="Calibri,Calibri_MSFontService,sans-serif" font-weight="400" font-size="15" transform="matrix(0.78 0 0 0.78 532.253 160)">.</text><text font-family="Calibri,Calibri_MSFontService,sans-serif" font-weight="400" font-size="15" transform="matrix(0.78 0 0 0.78 535.372 160)">js</text><path d="M45.24 179.4 141.18 179.4 141.18 246.48 45.24 246.48Z" fill="#BDD7EE"/><text fill="#2F5597" font-family="Calibri,Calibri_MSFontService,sans-serif" font-weight="400" font-size="13" transform="matrix(0.78 0 0 0.78 49.6185 191)">-</text><text fill="#2F5597" font-family="Calibri,Calibri_MSFontService,sans-serif" font-weight="400" font-size="13" transform="matrix(0.78 0 0 0.78 52.7873 191)">selectedRegion</text><text fill="#2F5597" font-family="Calibri,Calibri_MSFontService,sans-serif" font-weight="400" font-size="13" transform="matrix(0.78 0 0 0.78 49.6185 204)">-</text><text fill="#2F5597" font-family="Calibri,Calibri_MSFontService,sans-serif" font-weight="400" font-size="13" transform="matrix(0.78 0 0 0.78 52.7873 204)">selectedCuenca</text><text fill="#2F5597" font-family="Calibri,Calibri_MSFontService,sans-serif" font-weight="400" font-size="13" transform="matrix(0.78 0 0 0.78 49.6185 216)">-</text><text fill="#2F5597" font-family="Calibri,Calibri_MSFontService,sans-serif" font-weight="400" font-size="13" transform="matrix(0.78 0 0 0.78 52.7873 216)">selectedSubCuenca</text><text fill="#2F5597" font-family="Calibri,Calibri_MSFontService,sans-serif" font-weight="400" font-size="13" transform="matrix(0.78 0 0 0.78 49.6185 229)">-</text><text fill="#2F5597" font-family="Calibri,Calibri_MSFontService,sans-serif" font-weight="400" font-size="13" transform="matrix(0.78 0 0 0.78 52.7873 229)">selectedUnifilar</text><text fill="#2F5597" font-family="Calibri,Calibri_MSFontService,sans-serif" font-weight="400" font-size="13" transform="matrix(0.78 0 0 0.78 49.6185 241)">-</text><text fill="#2F5597" font-family="Calibri,Calibri_MSFontService,sans-serif" font-weight="400" font-size="13" transform="matrix(0.78 0 0 0.78 52.7873 241)">infoUnifilar</text><path d="M182.52 178.62 278.46 178.62 278.46 246.48 182.52 246.48Z" fill="#BDD7EE"/><text fill="#2F5597" font-family="Calibri,Calibri_MSFontService,sans-serif" font-weight="400" font-size="13" transform="matrix(0.78 0 0 0.78 186.884 190)">-</text><text fill="#2F5597" font-family="Calibri,Calibri_MSFontService,sans-serif" font-weight="400" font-size="13" transform="matrix(0.78 0 0 0.78 190.053 190)">selectedUnifilar</text><path d="M319.8 178.62 414.96 178.62 414.96 246.48 319.8 246.48Z" fill="#BDD7EE"/><text fill="#2F5597" font-family="Calibri,Calibri_MSFontService,sans-serif" font-weight="400" font-size="13" transform="matrix(0.78 0 0 0.78 324.15 190)">-</text><text fill="#2F5597" font-family="Calibri,Calibri_MSFontService,sans-serif" font-weight="400" font-size="13" transform="matrix(0.78 0 0 0.78 329.675 190)">selectedUnifilar</text><path d="M457.08 179.4 553.02 179.4 553.02 247.26 457.08 247.26Z" fill="#BDD7EE"/><text fill="#2F5597" font-family="Calibri,Calibri_MSFontService,sans-serif" font-weight="400" font-size="13" transform="matrix(0.78 0 0 0.78 461.68 191)">-</text><text fill="#2F5597" font-family="Calibri,Calibri_MSFontService,sans-serif" font-weight="400" font-size="13" transform="matrix(0.78 0 0 0.78 464.85 191)">selectedUnifilar</text><path d="M45.24 256.62 141.18 256.62 141.18 336.96 45.24 336.96Z" fill="#C5E0B4"/><text fill="#0D0D0D" font-family="Calibri,Calibri_MSFontService,sans-serif" font-weight="400" font-size="13" transform="matrix(0.78 0 0 0.78 49.6185 268)">Actualizaci</text><text fill="#0D0D0D" font-family="Calibri,Calibri_MSFontService,sans-serif" font-weight="400" font-size="13" transform="matrix(0.78 0 0 0.78 94.2965 268)">贸n</text><text fill="#0D0D0D" font-family="Calibri,Calibri_MSFontService,sans-serif" font-weight="400" font-size="13" transform="matrix(0.78 0 0 0.78 107.621 268)">de</text><text fill="#0D0D0D" font-family="Calibri,Calibri_MSFontService,sans-serif" font-weight="400" font-size="13" transform="matrix(0.78 0 0 0.78 49.6185 281)">variables de estado</text><text fill="#0D0D0D" font-family="Calibri,Calibri_MSFontService,sans-serif" font-weight="400" font-size="13" transform="matrix(0.78 0 0 0.78 133.859 281)">.</text><path d="M180.96 256.62 276.9 256.62 276.9 336.96 180.96 336.96Z" fill="#C5E0B4"/><text font-family="Calibri,Calibri_MSFontService,sans-serif" font-weight="400" font-size="13" transform="matrix(0.78 0 0 0.78 185.553 268)">Filtrado</text><text font-family="Calibri,Calibri_MSFontService,sans-serif" font-weight="400" font-size="13" transform="matrix(0.78 0 0 0.78 220.275 268)">y</text><text font-family="Calibri,Calibri_MSFontService,sans-serif" font-weight="400" font-size="13" transform="matrix(0.78 0 0 0.78 227.344 268)">creaci贸n</text><text font-family="Calibri,Calibri_MSFontService,sans-serif" font-weight="400" font-size="13" transform="matrix(0.78 0 0 0.78 185.553 281)">de Csv con data de</text><text font-family="Calibri,Calibri_MSFontService,sans-serif" font-weight="400" font-size="13" transform="matrix(0.78 0 0 0.78 185.553 293)">unifilar</text><text font-family="Calibri,Calibri_MSFontService,sans-serif" font-weight="400" font-size="13" transform="matrix(0.78 0 0 0.78 185.553 306)">seleccionado</text><text font-family="Calibri,Calibri_MSFontService,sans-serif" font-weight="400" font-size="13" transform="matrix(0.78 0 0 0.78 242.752 306)">para</text><text font-family="Calibri,Calibri_MSFontService,sans-serif" font-weight="400" font-size="13" transform="matrix(0.78 0 0 0.78 185.553 318)">descarga</text><text font-family="Calibri,Calibri_MSFontService,sans-serif" font-weight="400" font-size="13" transform="matrix(0.78 0 0 0.78 222.667 318)">.</text><path d="M17.16 70.2 128.7 70.2 128.7 88.92 17.16 88.92Z" fill="#D5D5D5"/><text font-family="Calibri,Calibri_MSFontService,sans-serif" font-weight="400" font-size="15" transform="matrix(0.78 0 0 0.78 39.8638 83)">unifilares</text><text font-family="Calibri,Calibri_MSFontService,sans-serif" font-weight="400" font-size="15" transform="matrix(0.78 0 0 0.78 85.1039 83)">.</text><text font-family="Calibri,Calibri_MSFontService,sans-serif" font-weight="400" font-size="15" transform="matrix(0.78 0 0 0.78 88.2238 83)">json</text><path d="M422.76 72.54 534.3 72.54 534.3 91.26 422.76 91.26Z" fill="#D5D5D5"/><text font-family="Calibri,Calibri_MSFontService,sans-serif" font-weight="400" font-size="15" transform="matrix(0.78 0 0 0.78 436.296 86)">Reg</text><text font-family="Calibri,Calibri_MSFontService,sans-serif" font-weight="400" font-size="15" transform="matrix(0.78 0 0 0.78 454.236 86)">_</text><text font-family="Calibri,Calibri_MSFontService,sans-serif" font-weight="400" font-size="15" transform="matrix(0.78 0 0 0.78 459.696 86)">cuen</text><text font-family="Calibri,Calibri_MSFontService,sans-serif" font-weight="400" font-size="15" transform="matrix(0.78 0 0 0.78 483.096 86)">_</text><text font-family="Calibri,Calibri_MSFontService,sans-serif" font-weight="400" font-size="15" transform="matrix(0.78 0 0 0.78 488.556 86)">sc</text><text font-family="Calibri,Calibri_MSFontService,sans-serif" font-weight="400" font-size="15" transform="matrix(0.78 0 0 0.78 497.916 86)">.</text><text font-family="Calibri,Calibri_MSFontService,sans-serif" font-weight="400" font-size="15" transform="matrix(0.78 0 0 0.78 501.036 86)">json</text><path d="M0 0 5.11811e-05 41.2959" stroke="#4472C4" stroke-width="0.325" stroke-miterlimit="8" fill="none" fill-rule="evenodd" transform="matrix(-1 0 0 1 276.51 90.09)"/><path d="M0 0 417.023 5.11811e-05" stroke="#4472C4" stroke-width="0.325" stroke-miterlimit="8" fill="none" fill-rule="evenodd" transform="matrix(1 0 0 -1 88.53 131.43)"/><path d="M88.6922 131.43 88.6922 140.668 88.3678 140.668 88.3678 131.43ZM90.48 140.017 88.53 143.917 86.58 140.017Z" fill="#4472C4"/><path d="M224.412 132.21 224.412 141.448 224.088 141.448 224.088 132.21ZM226.2 140.797 224.25 144.697 222.3 140.797Z" fill="#4472C4"/><path d="M505.212 131.43 505.212 140.668 504.888 140.668 504.888 131.43ZM507 140.017 505.05 143.917 503.1 140.017Z" fill="#4472C4"/><path d="M367.932 131.43 367.932 140.668 367.608 140.668 367.608 131.43ZM369.72 140.017 367.77 143.917 365.82 140.017Z" fill="#4472C4"/><path d="M319.8 255.84 414.96 255.84 414.96 336.18 319.8 336.18Z" fill="#C5E0B4"/><text font-family="Calibri,Calibri_MSFontService,sans-serif" font-weight="400" font-size="13" transform="matrix(0.78 0 0 0.78 324.15 268)">Recuperaci贸n</text><text font-family="Calibri,Calibri_MSFontService,sans-serif" font-weight="400" font-size="13" transform="matrix(0.78 0 0 0.78 383.797 268)">de</text><text font-family="Calibri,Calibri_MSFontService,sans-serif" font-weight="400" font-size="13" transform="matrix(0.78 0 0 0.78 324.15 280)">mapa</text><text font-family="Calibri,Calibri_MSFontService,sans-serif" font-weight="400" font-size="13" transform="matrix(0.78 0 0 0.78 350.15 280)">Leaflet y</text><text font-family="Calibri,Calibri_MSFontService,sans-serif" font-weight="400" font-size="13" transform="matrix(0.78 0 0 0.78 324.15 293)">HTML con</text><text font-family="Calibri,Calibri_MSFontService,sans-serif" font-weight="400" font-size="13" transform="matrix(0.78 0 0 0.78 368.912 293)">diagrama</text><text font-family="Calibri,Calibri_MSFontService,sans-serif" font-weight="400" font-size="13" transform="matrix(0.78 0 0 0.78 324.15 305)">unifilar</text><text font-family="Calibri,Calibri_MSFontService,sans-serif" font-weight="400" font-size="13" transform="matrix(0.78 0 0 0.78 356.243 305)">desde</text><text font-family="Calibri,Calibri_MSFontService,sans-serif" font-weight="400" font-size="13" transform="matrix(0.78 0 0 0.78 383.95 305)">base</text><text font-family="Calibri,Calibri_MSFontService,sans-serif" font-weight="400" font-size="13" transform="matrix(0.78 0 0 0.78 324.15 318)">de</text><text font-family="Calibri,Calibri_MSFontService,sans-serif" font-weight="400" font-size="13" transform="matrix(0.78 0 0 0.78 337.15 318)">datos</text><text font-family="Calibri,Calibri_MSFontService,sans-serif" font-weight="400" font-size="13" transform="matrix(0.78 0 0 0.78 362.789 318)">local</text><text font-family="Calibri,Calibri_MSFontService,sans-serif" font-weight="400" font-size="13" transform="matrix(0.78 0 0 0.78 384.629 318)">.</text><path d="M129.091 80.5678 250.514 81.0014 250.513 81.3267 129.089 80.8922ZM249.871 79.2113 253.764 81.1754 249.857 83.1113Z" fill="#4472C4"/><path d="M6.66089e-08-0.1625 121.612-0.16245 121.612 0.16255-6.66089e-08 0.1625ZM120.962-1.94995 124.862 5.11811e-05 120.962 1.95005Z" fill="#4472C4" transform="matrix(-1 0 0 1 423.212 82.29)"/><path d="M456.3 255.84 552.24 255.84 552.24 336.18 456.3 336.18Z" fill="#C5E0B4"/><text font-family="Calibri,Calibri_MSFontService,sans-serif" font-weight="400" font-size="13" transform="matrix(0.78 0 0 0.78 461.152 268)">Recuperaci贸n</text><text font-family="Calibri,Calibri_MSFontService,sans-serif" font-weight="400" font-size="13" transform="matrix(0.78 0 0 0.78 520.799 268)">de</text><text font-family="Calibri,Calibri_MSFontService,sans-serif" font-weight="400" font-size="13" transform="matrix(0.78 0 0 0.78 461.152 280)">fotos</text><text font-family="Calibri,Calibri_MSFontService,sans-serif" font-weight="400" font-size="13" transform="matrix(0.78 0 0 0.78 484.965 280)">de unifilar</text><text font-family="Calibri,Calibri_MSFontService,sans-serif" font-weight="400" font-size="13" transform="matrix(0.78 0 0 0.78 461.152 293)">seleccionado</text><text font-family="Calibri,Calibri_MSFontService,sans-serif" font-weight="400" font-size="13" transform="matrix(0.78 0 0 0.78 518.352 293)">desde</text><text font-family="Calibri,Calibri_MSFontService,sans-serif" font-weight="400" font-size="13" transform="matrix(0.78 0 0 0.78 461.152 305)">base de</text><text font-family="Calibri,Calibri_MSFontService,sans-serif" font-weight="400" font-size="13" transform="matrix(0.78 0 0 0.78 496.17 305)">datos</text><text font-family="Calibri,Calibri_MSFontService,sans-serif" font-weight="400" font-size="13" transform="matrix(0.78 0 0 0.78 521.81 305)">local</text><text font-family="Calibri,Calibri_MSFontService,sans-serif" font-weight="400" font-size="13" transform="matrix(0.78 0 0 0.78 543.65 305)">.</text><path d="M88.14 12.48 199.68 12.48 199.68 31.98 88.14 31.98Z" fill="#D5D5D5"/><text font-family="Calibri,Calibri_MSFontService,sans-serif" font-weight="400" font-size="15" transform="matrix(0.78 0 0 0.78 107.213 26)">Mapa</text><text font-family="Calibri,Calibri_MSFontService,sans-serif" font-weight="400" font-size="15" transform="matrix(0.78 0 0 0.78 137.275 26)">unifilares</text><path d="M220.74 12.48 332.28 12.48 332.28 31.2 220.74 31.2Z" fill="#D5D5D5"/><text font-family="Calibri,Calibri_MSFontService,sans-serif" font-weight="400" font-size="15" transform="matrix(0.78 0 0 0.78 235.406 26)">Diagrama</text><text font-family="Calibri,Calibri_MSFontService,sans-serif" font-weight="400" font-size="15" transform="matrix(0.78 0 0 0.78 283.51 26)">unifilar</text><path d="M415.35 30.03 415.35 50.9915" stroke="#4472C4" stroke-width="0.325" stroke-miterlimit="8" fill="none" fill-rule="evenodd"/><path d="M143.13 30.81 143.13 51.7715" stroke="#4472C4" stroke-width="0.325" stroke-miterlimit="8" fill="none" fill-rule="evenodd"/><path d="M143.13 51.09 415.557 51.0901" stroke="#4472C4" stroke-width="0.325" stroke-miterlimit="8" fill="none" fill-rule="evenodd"/><path d="M276.672 51.09 276.672 68.1261 276.348 68.1261 276.348 51.09ZM278.46 67.476 276.51 71.376 274.56 67.4761Z" fill="#4472C4"/><path d="M78.78 7.02 343.2 7.02 343.2 35.88 78.78 35.88Z" stroke="#FF0000" stroke-width="1.4625" stroke-miterlimit="8" stroke-dasharray="5.85 4.3875" fill="none"/><text fill="#FF0000" font-family="Calibri,Calibri_MSFontService,sans-serif" font-weight="400" font-size="12" transform="matrix(0.78 0 0 0.78 291.342 44)">Archivos HTML</text><path d="M363.48 12.48 475.02 12.48 475.02 31.2 363.48 31.2Z" fill="#D5D5D5"/><text font-family="Calibri,Calibri_MSFontService,sans-serif" font-weight="400" font-size="15" transform="matrix(0.78 0 0 0.78 377.797 26)">Data unifilar </text><text font-family="Calibri,Calibri_MSFontService,sans-serif" font-weight="400" font-size="15" transform="matrix(0.78 0 0 0.78 438.637 26)">(.</text><text font-family="Calibri,Calibri_MSFontService,sans-serif" font-weight="400" font-size="15" transform="matrix(0.78 0 0 0.78 445.39 26)">xls</text><text font-family="Calibri,Calibri_MSFontService,sans-serif" font-weight="400" font-size="15" transform="matrix(0.78 0 0 0.78 457.659 26)">)</text><path d="M498.42 12.48 615.42 12.48 615.42 30.42 498.42 30.42Z" fill="#FFD966"/><text font-family="Calibri,Calibri_MSFontService,sans-serif" font-weight="400" font-size="13" transform="matrix(0.78 0 0 0.78 539.684 24)">style</text><text font-family="Calibri,Calibri_MSFontService,sans-serif" font-weight="400" font-size="13" transform="matrix(0.78 0 0 0.78 559.964 24)">.</text><text font-family="Calibri,Calibri_MSFontService,sans-serif" font-weight="400" font-size="13" transform="matrix(0.78 0 0 0.78 562.304 24)">css</text><path d="M557.31 30.81 557.31 61.6868" stroke="#4472C4" stroke-width="0.325" stroke-miterlimit="8" stroke-dasharray="1.3 0.975" fill="none" fill-rule="evenodd"/><path d="M320.19 61.23 557.815 61.2301" stroke="#4472C4" stroke-width="0.325" stroke-miterlimit="8" stroke-dasharray="1.3 0.975" fill="none" fill-rule="evenodd"/><path d="M320.19 62.79 320.19 73.0886" stroke="#4472C4" stroke-width="0.325" stroke-miterlimit="8" stroke-dasharray="1.3 0.975" fill="none" fill-rule="evenodd"/><path d="M3.8936e-07-0.1625 1.3-0.162497 1.3 0.162503-3.8936e-07 0.1625ZM2.275-0.162494 2.6-0.162493 2.6 0.162506 2.275 0.162505ZM3.575-0.162491 4.875-0.162488 4.875 0.162511 3.575 0.162508ZM5.85-0.162486 6.175-0.162485 6.175 0.162515 5.85 0.162514ZM7.15-0.162483 8.44997-0.162479 8.44997 0.16252 7.15 0.162517ZM9.42497-0.162477 9.75-0.162476 9.75 0.162523 9.42497 0.162522ZM10.725-0.162474 12.025-0.162471 12.025 0.162529 10.725 0.162525ZM13-0.162469 13.325-0.162468 13.325 0.162532 13 0.162531ZM14.3-0.162465 15.6-0.162462 15.6 0.162537 14.3 0.162534ZM16.575-0.16246 16.9-0.162459 16.9 0.16254 16.575 0.16254ZM17.875-0.162457 18.1105-0.162457 18.1105 0.162543 17.875 0.162543ZM17.4605-1.94996 21.3605 5.11811e-05 17.4605 1.95004Z" fill="#4472C4" transform="matrix(-1 0 0 1 319.71 72.93)"/></g></svg>